<?xml version="1.0" encoding="UTF-8"?>
<svg xmlns="http://www.w3.org/2000/svg" xmlns:xlink="http://www.w3.org/1999/xlink" width="32pt" height="32pt" viewBox="0 0 32 32" version="1.1">
<g id="surface1">
<path style=" stroke:none;fill-rule:nonzero;fill:rgb(68.627451%,67.45098%,70.196078%);fill-opacity:1;" d="M 22.242188 27.730469 C 21.40625 27.730469 20.726562 27.050781 20.726562 26.214844 L 20.726562 24.78125 L 23.757812 22.738281 L 23.757812 26.214844 C 23.757812 27.050781 23.082031 27.730469 22.242188 27.730469 Z M 22.242188 27.730469 "/>
<path style=" stroke:none;fill-rule:nonzero;fill:rgb(68.627451%,67.45098%,70.196078%);fill-opacity:1;" d="M 9.375 27.730469 C 8.539062 27.730469 7.859375 27.050781 7.859375 26.214844 L 7.859375 24.78125 L 10.890625 22.695312 L 10.890625 26.214844 C 10.890625 27.050781 10.210938 27.730469 9.375 27.730469 Z M 9.375 27.730469 "/>
<path style=" stroke:none;fill-rule:nonzero;fill:rgb(48.627451%,25.882353%,25.882353%);fill-opacity:1;" d="M 27.21875 13.175781 L 27.003906 13.894531 L 23.867188 24.421875 L 23.761719 24.78125 L 20.726562 24.78125 L 20.726562 26.214844 C 20.726562 26.453125 20.671875 26.683594 20.570312 26.882812 C 20.496094 27.035156 20.398438 27.171875 20.28125 27.285156 C 20.007812 27.5625 19.628906 27.730469 19.210938 27.730469 C 18.375 27.730469 17.695312 27.050781 17.695312 26.214844 L 17.695312 24.78125 L 7.859375 24.78125 L 7.859375 26.214844 C 7.859375 26.339844 7.84375 26.464844 7.8125 26.582031 C 7.648438 27.242188 7.050781 27.730469 6.34375 27.730469 C 5.503906 27.730469 4.828125 27.050781 4.828125 26.214844 L 4.828125 24.78125 L 1.925781 24.78125 L 2.648438 21.429688 L 0.476562 21.429688 C 0.476562 19.582031 2.726562 17.078125 2.726562 17.078125 L 0.476562 17.078125 C 0.476562 14.570312 3.78125 12.464844 3.78125 12.464844 L 1.660156 11.933594 C 2.84375 9.425781 6.550781 8.371094 6.550781 8.371094 L 4.296875 7.585938 C 5.222656 5.210938 10.566406 6.335938 10.566406 6.335938 L 8.914062 4.683594 C 11.285156 3.402344 14.582031 5.964844 14.582031 5.964844 L 14.582031 4.289062 C 18.140625 4.289062 19.785156 6.808594 19.785156 6.808594 L 19.785156 4.886719 C 22.75 5.480469 24.003906 9.105469 24.003906 9.105469 L 25.394531 7.714844 C 27.109375 9.429688 27.21875 13.175781 27.21875 13.175781 Z M 27.21875 13.175781 "/>
<path style=" stroke:none;fill-rule:nonzero;fill:rgb(57.647059%,41.568627%,37.647059%);fill-opacity:1;" d="M 27.03125 14.273438 L 24.003906 24.421875 L 4.917969 24.421875 L 5.550781 21.488281 L 3.648438 21.488281 C 3.648438 19.875 5.617188 17.6875 5.617188 17.6875 L 3.648438 17.6875 C 3.648438 15.496094 6.539062 13.65625 6.539062 13.65625 L 4.6875 13.191406 C 5.71875 10.996094 8.960938 10.074219 8.960938 10.074219 L 6.992188 9.386719 C 7.796875 7.3125 12.472656 8.296875 12.472656 8.296875 L 11.027344 6.851562 C 13.101562 5.730469 15.980469 7.972656 15.980469 7.972656 L 15.980469 6.503906 C 19.09375 6.503906 20.53125 8.710938 20.53125 8.710938 L 20.53125 7.027344 C 23.121094 7.550781 24.21875 10.714844 24.21875 10.714844 L 25.433594 9.503906 C 26.621094 10.6875 26.929688 12.988281 27.003906 13.894531 C 27.027344 14.132812 27.03125 14.273438 27.03125 14.273438 Z M 27.03125 14.273438 "/>
<path style=" stroke:none;fill-rule:nonzero;fill:rgb(90.196078%,90.196078%,90.196078%);fill-opacity:1;" d="M 31.523438 17.476562 C 29.148438 17.476562 27.21875 15.550781 27.21875 13.175781 L 23.5 13.230469 C 22.039062 13.25 20.75 13.808594 19.785156 14.714844 C 19.464844 14.5 19.078125 14.375 18.660156 14.375 C 17.542969 14.375 16.632812 15.28125 16.632812 16.402344 C 16.632812 17.296875 17.214844 18.058594 18.019531 18.324219 C 17.996094 18.550781 17.984375 18.777344 17.984375 19.007812 C 17.984375 22.195312 20.570312 24.78125 23.757812 24.78125 L 24.21875 24.78125 C 28.253906 24.78125 31.523438 21.511719 31.523438 17.476562 Z M 31.523438 17.476562 "/>
<path style=" stroke:none;fill-rule:nonzero;fill:rgb(76.862745%,74.509804%,80%);fill-opacity:1;" d="M 24.621094 21.886719 L 23.761719 24.78125 L 20.726562 24.78125 L 20.726562 26.214844 C 20.726562 26.632812 20.558594 27.011719 20.28125 27.285156 C 20.007812 27.5625 19.628906 27.730469 19.210938 27.730469 C 18.375 27.730469 17.695312 27.050781 17.695312 26.214844 L 17.695312 24.78125 L 7.859375 24.78125 L 7.859375 26.214844 C 7.859375 27.050781 7.179688 27.730469 6.34375 27.730469 C 5.503906 27.730469 4.828125 27.050781 4.828125 26.214844 L 4.828125 24.78125 C 5.4375 19.050781 18.753906 21.886719 18.753906 21.886719 Z M 24.621094 21.886719 "/>
<path style=" stroke:none;fill-rule:nonzero;fill:rgb(76.862745%,74.509804%,80%);fill-opacity:1;" d="M 31.371094 18.976562 C 31.289062 19.363281 31.179688 19.734375 31.042969 20.097656 C 29.988281 22.835938 27.332031 24.78125 24.21875 24.78125 L 23.761719 24.78125 C 22.164062 24.78125 20.722656 24.136719 19.675781 23.089844 C 18.632812 22.046875 17.984375 20.601562 17.984375 19.007812 L 17.984375 18.996094 C 17.988281 19.808594 18.632812 20.546875 19.675781 21.078125 C 20.722656 21.609375 22.164062 21.941406 23.761719 21.941406 L 24.21875 21.941406 C 27.332031 21.941406 29.988281 20.949219 31.042969 19.546875 C 31.179688 19.363281 31.289062 19.175781 31.371094 18.976562 Z M 31.371094 18.976562 "/>
<path style=" stroke:none;fill-rule:nonzero;fill:rgb(30.980392%,32.156863%,38.823529%);fill-opacity:1;" d="M 31.523438 17.476562 C 31.523438 18.402344 31.355469 19.285156 31.042969 20.097656 C 29.800781 19.867188 28.863281 18.78125 28.863281 17.476562 C 28.863281 17.191406 28.910156 16.914062 28.992188 16.65625 C 29.703125 17.171875 30.578125 17.476562 31.523438 17.476562 Z M 31.523438 17.476562 "/>
<path style=" stroke:none;fill-rule:nonzero;fill:rgb(30.980392%,32.156863%,38.823529%);fill-opacity:1;" d="M 25.316406 18.683594 C 25.316406 19.136719 24.945312 19.507812 24.492188 19.507812 C 24.035156 19.507812 23.667969 19.136719 23.667969 18.683594 C 23.667969 18.226562 24.035156 17.859375 24.492188 17.859375 C 24.945312 17.859375 25.316406 18.226562 25.316406 18.683594 Z M 25.316406 18.683594 "/>
<path style=" stroke:none;fill-rule:nonzero;fill:rgb(0%,0%,0%);fill-opacity:1;" d="M 32 17.476562 C 32 17.214844 31.789062 17.003906 31.523438 17.003906 C 29.414062 17.003906 27.695312 15.285156 27.695312 13.175781 C 27.695312 13.171875 27.695312 13.167969 27.695312 13.167969 C 27.695312 13.164062 27.695312 13.164062 27.695312 13.160156 C 27.691406 13 27.554688 9.207031 25.730469 7.378906 C 25.542969 7.195312 25.242188 7.195312 25.058594 7.378906 L 24.167969 8.269531 C 23.964844 7.847656 23.652344 7.277344 23.21875 6.699219 C 23.058594 6.488281 22.761719 6.449219 22.550781 6.605469 C 22.339844 6.761719 22.300781 7.0625 22.457031 7.269531 C 23.203125 8.257812 23.554688 9.25 23.554688 9.261719 C 23.609375 9.414062 23.738281 9.53125 23.898438 9.566406 C 24.058594 9.605469 24.226562 9.554688 24.339844 9.441406 L 25.371094 8.414062 C 26.332031 9.695312 26.625 11.773438 26.710938 12.707031 L 23.492188 12.757812 C 22.097656 12.773438 20.773438 13.257812 19.722656 14.136719 C 19.394531 13.980469 19.03125 13.898438 18.660156 13.898438 C 17.28125 13.898438 16.160156 15.023438 16.160156 16.402344 C 16.160156 17.351562 16.691406 18.207031 17.519531 18.628906 C 17.511719 18.753906 17.507812 18.882812 17.507812 19.007812 C 17.507812 19.796875 17.65625 20.550781 17.925781 21.25 C 16.113281 20.9375 12.027344 20.371094 8.816406 20.980469 C 8.558594 21.027344 8.386719 21.277344 8.4375 21.535156 C 8.484375 21.792969 8.734375 21.960938 8.992188 21.914062 C 12.542969 21.242188 17.425781 22.113281 18.457031 22.3125 C 18.976562 23.144531 19.6875 23.84375 20.523438 24.351562 C 20.363281 24.429688 20.253906 24.59375 20.253906 24.78125 L 20.253906 26.214844 C 20.253906 26.789062 19.785156 27.253906 19.210938 27.253906 C 18.636719 27.253906 18.171875 26.789062 18.171875 26.214844 L 18.171875 24.78125 C 18.171875 24.519531 17.957031 24.308594 17.695312 24.308594 L 7.859375 24.308594 C 7.597656 24.308594 7.382812 24.519531 7.382812 24.78125 L 7.382812 26.214844 C 7.382812 26.789062 6.917969 27.253906 6.34375 27.253906 C 5.769531 27.253906 5.300781 26.789062 5.300781 26.214844 L 5.300781 24.8125 C 5.429688 23.6875 6.128906 22.882812 7.4375 22.355469 C 7.683594 22.253906 7.800781 21.976562 7.699219 21.734375 C 7.601562 21.492188 7.324219 21.375 7.082031 21.472656 C 5.59375 22.074219 4.699219 23.027344 4.421875 24.308594 L 2.515625 24.308594 L 3.113281 21.527344 C 3.144531 21.386719 3.109375 21.242188 3.019531 21.128906 C 2.929688 21.015625 2.792969 20.953125 2.648438 20.953125 L 1.003906 20.953125 C 1.28125 19.636719 2.550781 17.980469 3.078125 17.394531 C 3.203125 17.253906 3.234375 17.054688 3.160156 16.882812 C 3.082031 16.710938 2.914062 16.601562 2.726562 16.601562 L 0.996094 16.601562 C 1.375 14.589844 4.007812 12.882812 4.035156 12.867188 C 4.195312 12.765625 4.28125 12.578125 4.25 12.390625 C 4.21875 12.203125 4.078125 12.050781 3.894531 12.003906 L 2.382812 11.625 C 3.6875 9.703125 6.648438 8.835938 6.683594 8.828125 C 6.882812 8.773438 7.019531 8.59375 7.027344 8.386719 C 7.035156 8.179688 6.90625 7.992188 6.710938 7.921875 L 5.015625 7.332031 C 5.601562 6.714844 6.792969 6.558594 7.769531 6.546875 C 9.15625 6.53125 10.457031 6.800781 10.46875 6.800781 C 10.675781 6.84375 10.882812 6.75 10.984375 6.5625 C 11.085938 6.378906 11.050781 6.148438 10.902344 6 L 9.769531 4.867188 C 11.777344 4.417969 14.261719 6.320312 14.289062 6.339844 C 14.433594 6.453125 14.628906 6.472656 14.792969 6.390625 C 14.953125 6.3125 15.058594 6.148438 15.058594 5.964844 L 15.058594 4.777344 C 17.972656 4.980469 19.328125 6.980469 19.386719 7.070312 C 19.503906 7.246094 19.71875 7.324219 19.921875 7.265625 C 20.125 7.207031 20.261719 7.019531 20.261719 6.808594 L 20.261719 5.515625 C 20.65625 5.664062 21.039062 5.882812 21.398438 6.167969 C 21.605469 6.332031 21.90625 6.296875 22.066406 6.089844 C 22.230469 5.886719 22.195312 5.585938 21.992188 5.425781 C 21.339844 4.910156 20.628906 4.570312 19.878906 4.417969 C 19.742188 4.390625 19.597656 4.425781 19.484375 4.515625 C 19.375 4.609375 19.3125 4.742188 19.3125 4.886719 L 19.3125 5.578125 C 18.433594 4.789062 16.882812 3.8125 14.582031 3.8125 C 14.320312 3.8125 14.105469 4.027344 14.105469 4.289062 L 14.105469 5.070312 C 12.921875 4.347656 10.589844 3.238281 8.6875 4.265625 C 8.554688 4.335938 8.464844 4.464844 8.441406 4.613281 C 8.421875 4.761719 8.472656 4.914062 8.578125 5.019531 L 9.21875 5.664062 C 8.785156 5.621094 8.289062 5.589844 7.773438 5.59375 C 5.632812 5.617188 4.316406 6.230469 3.855469 7.410156 C 3.808594 7.53125 3.8125 7.664062 3.867188 7.78125 C 3.921875 7.898438 4.019531 7.988281 4.140625 8.03125 L 5.15625 8.386719 C 3.894531 8.941406 2.042969 10.011719 1.230469 11.730469 C 1.171875 11.859375 1.171875 12.011719 1.230469 12.136719 C 1.292969 12.265625 1.410156 12.363281 1.546875 12.394531 L 2.6875 12.683594 C 1.644531 13.53125 0 15.171875 0 17.078125 C 0 17.339844 0.210938 17.550781 0.476562 17.550781 L 1.730469 17.550781 C 1.566406 17.769531 1.382812 18.023438 1.203125 18.300781 C 0.40625 19.515625 0 20.566406 0 21.425781 C 0 21.691406 0.210938 21.902344 0.476562 21.902344 L 2.058594 21.902344 L 1.460938 24.683594 C 1.429688 24.824219 1.464844 24.96875 1.554688 25.082031 C 1.644531 25.191406 1.78125 25.257812 1.925781 25.257812 L 4.351562 25.257812 L 4.351562 26.214844 C 4.351562 27.3125 5.246094 28.207031 6.34375 28.207031 C 6.957031 28.207031 7.507812 27.925781 7.875 27.484375 C 8.238281 27.925781 8.789062 28.207031 9.40625 28.207031 C 10.503906 28.207031 11.398438 27.3125 11.398438 26.214844 L 11.398438 25.257812 L 17.21875 25.257812 L 17.21875 26.214844 C 17.21875 27.3125 18.113281 28.207031 19.210938 28.207031 C 19.828125 28.207031 20.378906 27.925781 20.742188 27.484375 C 21.109375 27.925781 21.660156 28.207031 22.273438 28.207031 C 23.375 28.207031 24.265625 27.3125 24.265625 26.214844 L 24.265625 25.257812 C 28.535156 25.230469 32 21.753906 32 17.476562 Z M 10.449219 26.214844 C 10.449219 26.789062 9.980469 27.253906 9.40625 27.253906 C 8.832031 27.253906 8.367188 26.789062 8.367188 26.214844 L 8.367188 25.257812 L 10.449219 25.257812 Z M 30.738281 19.519531 C 29.90625 19.199219 29.339844 18.398438 29.339844 17.476562 C 29.339844 17.460938 29.339844 17.441406 29.339844 17.421875 C 29.859375 17.691406 30.429688 17.867188 31.035156 17.929688 C 31 18.480469 30.898438 19.011719 30.738281 19.519531 Z M 23.316406 26.214844 C 23.316406 26.789062 22.847656 27.253906 22.273438 27.253906 C 21.699219 27.253906 21.234375 26.789062 21.234375 26.214844 L 21.234375 25.257812 L 23.316406 25.257812 Z M 24.21875 24.308594 L 23.761719 24.308594 C 20.835938 24.308594 18.460938 21.929688 18.460938 19.007812 C 18.460938 18.796875 18.472656 18.585938 18.492188 18.378906 C 18.519531 18.15625 18.382812 17.945312 18.171875 17.875 C 17.535156 17.664062 17.109375 17.070312 17.109375 16.402344 C 17.109375 15.546875 17.804688 14.847656 18.660156 14.847656 C 18.96875 14.847656 19.265625 14.941406 19.523438 15.109375 C 19.707031 15.234375 19.953125 15.210938 20.113281 15.0625 C 21.035156 14.191406 22.207031 13.722656 23.507812 13.707031 L 26.769531 13.65625 C 26.898438 14.929688 27.527344 16.054688 28.457031 16.835938 C 28.410156 17.046875 28.386719 17.261719 28.386719 17.476562 C 28.386719 18.792969 29.203125 19.945312 30.390625 20.402344 C 29.292969 22.710938 26.941406 24.308594 24.21875 24.308594 Z M 24.21875 24.308594 "/>
<path style=" stroke:none;fill-rule:nonzero;fill:rgb(0%,0%,0%);fill-opacity:1;" d="M 24.492188 17.382812 C 23.773438 17.382812 23.191406 17.964844 23.191406 18.683594 C 23.191406 19.398438 23.773438 19.980469 24.492188 19.980469 C 25.207031 19.980469 25.789062 19.398438 25.789062 18.683594 C 25.789062 17.964844 25.207031 17.382812 24.492188 17.382812 Z M 24.492188 19.03125 C 24.300781 19.03125 24.140625 18.875 24.140625 18.683594 C 24.140625 18.492188 24.300781 18.335938 24.492188 18.335938 C 24.683594 18.335938 24.839844 18.492188 24.839844 18.683594 C 24.839844 18.875 24.683594 19.03125 24.492188 19.03125 Z M 24.492188 19.03125 "/>
</g>
</svg>
